<?xml version="1.0" encoding="UTF-8"?>
<svg width="345px" height="119px" viewBox="0 0 345 119" version="1.1" xmlns="http://www.w3.org/2000/svg" xmlns:xlink="http://www.w3.org/1999/xlink">
    <!-- Generator: Sketch 55.2 (78181) - https://sketchapp.com -->
    <title>Group 2 Copy</title>
    <desc>Created with Sketch.</desc>
    <g id="Page-2" stroke="none" stroke-width="1" fill="none" fill-rule="evenodd">
        <g id="Desktop" transform="translate(-598.000000, -198.000000)">
            <g id="Group-2-Copy" transform="translate(598.000000, 198.000000)">
                <g id="Group-Copy">
                    <path d="M133,17 L159.264,17 L159.264,23.384 L140.056,23.384 L140.056,33.128 L158.256,33.128 L158.256,39.512 L140.056,39.512 L140.056,50.264 L160.272,50.264 L160.272,56.648 L133,56.648 L133,17 Z M156.924,17 L165.044,17 L175.852,46.96 L186.996,17 L194.612,17 L178.596,56.648 L172.492,56.648 L156.924,17 Z M194.268,17 L221.54,17 L221.54,23.384 L201.324,23.384 L201.324,33.128 L219.524,33.128 L219.524,39.512 L201.324,39.512 L201.324,50.264 L221.54,50.264 L221.54,56.648 L194.268,56.648 L194.268,17 Z M222.184,17 L235.96,17 C237.86401,17 239.702658,17.1773316 241.476,17.532 C243.249342,17.8866684 244.82666,18.493329 246.208,19.352 C247.58934,20.210671 248.690663,21.3679927 249.512,22.824 C250.333337,24.2800073 250.744,26.1279888 250.744,28.368 C250.744,31.242681 249.950675,33.650657 248.364,35.592 C246.777325,37.533343 244.509348,38.7093313 241.56,39.12 L252.088,56.648 L243.576,56.648 L234.392,39.848 L229.24,39.848 L229.24,56.648 L222.184,56.648 L222.184,17 Z M234.728,33.8 C235.736005,33.8 236.743995,33.7533338 237.752,33.66 C238.760005,33.5666662 239.683996,33.3426684 240.524,32.988 C241.364004,32.6333316 242.045331,32.0920036 242.568,31.364 C243.090669,30.6359964 243.352,29.6186732 243.352,28.312 C243.352,27.1546609 243.109336,26.2213369 242.624,25.512 C242.138664,24.8026631 241.504004,24.2706684 240.72,23.916 C239.935996,23.5613316 239.068005,23.3280006 238.116,23.216 C237.163995,23.1039994 236.24,23.048 235.344,23.048 L229.24,23.048 L229.24,33.8 L234.728,33.8 Z M251.964,17 L278.228,17 L278.228,23.384 L259.02,23.384 L259.02,33.128 L277.22,33.128 L277.22,39.512 L259.02,39.512 L259.02,50.264 L279.236,50.264 L279.236,56.648 L251.964,56.648 L251.964,17 Z M292.1,23.384 L279.948,23.384 L279.948,17 L311.308,17 L311.308,23.384 L299.156,23.384 L299.156,56.648 L292.1,56.648 L292.1,23.384 Z M325.152,23.384 L313,23.384 L313,17 L344.36,17 L344.36,23.384 L332.208,23.384 L332.208,56.648 L325.152,56.648 L325.152,23.384 Z" id="EVERETT" fill="#322B22" fill-rule="nonzero"></path>
                    <g id="atomic" transform="translate(41.000000, 0.000000)" fill="#1E337F" fill-rule="nonzero">
                        <path d="M39.9997724,28 C34.4859997,28 30,32.2617644 30,37.4999279 C30,42.7383797 34.4859997,47 39.9997724,47 C45.5140003,47 50,42.7382356 50,37.4999279 C50,32.2617644 45.5140003,28 39.9997724,28 Z M39.9997724,43.4053119 C36.5721937,43.4053119 33.7838248,40.7561771 33.7838248,37.4999279 C33.7838248,34.2436787 36.5723454,31.5946881 39.9997724,31.5946881 C43.4273511,31.5946881 46.2160235,34.2438229 46.2160235,37.4999279 C46.2160235,40.756033 43.4275029,43.4053119 39.9997724,43.4053119 Z" id="Shape"></path>
                        <path d="M74.7506045,21.7153292 C75.4616389,16.5847045 74.6454288,12.220725 72.3898648,8.99721983 C72.7590051,8.19706102 72.9662802,7.31016919 72.9662802,6.37609921 C72.9662802,2.86031963 70.0534415,0 66.4727812,0 C64.0531549,0 61.9396806,1.307324 60.8227384,3.23932708 C54.7054109,2.93914167 47.2155262,5.14630273 39.4628489,9.54408372 C26.2262418,2.03254434 14.2419283,1.13026208 8.02513799,7.23681291 C5.32323656,9.88986509 3.9238728,13.6859807 3.93031811,18.2721867 C1.62084789,19.2504143 0,21.5071987 0,24.12947 C0,27.6452496 2.9129852,30.5055692 6.49349899,30.5055692 C6.53114543,30.5055692 6.56820594,30.5034117 6.6057059,30.5026925 C7.60443531,32.9968061 8.86771523,35.5451457 10.3747449,38.106143 C2.72489946,51.1032938 1.80615043,62.8709359 8.02484503,68.9753292 C10.768348,71.6699499 14.6336271,73 19.2348429,73 C25.0611063,73 32.0670071,70.8650445 39.4627024,66.6683461 C46.8589836,70.865476 53.864152,73 59.6910013,73 C64.2920707,73 68.1585216,71.6699499 70.9023176,68.9757607 C77.1205727,62.8697852 76.2002124,51.1015678 68.5483162,38.1051361 C71.9139376,32.3842092 74.0548045,26.7363509 74.7506045,21.7153292 Z M66.4727812,3.58712216 C68.038844,3.58712216 69.3131103,4.83835018 69.3131103,6.37609921 C69.3131103,7.91384824 68.038844,9.16507626 66.4727812,9.16507626 C64.9067184,9.16507626 63.6324522,7.91384824 63.6324522,6.37609921 C63.6324522,4.83835018 64.906572,3.58712216 66.4727812,3.58712216 Z M59.9951025,6.79940811 C60.217905,10.1184202 63.0371403,12.7523423 66.4727812,12.7523423 C67.7165788,12.7523423 68.8793705,12.4065609 69.867846,11.8087791 C71.2200418,14.2194679 71.6571508,17.4339114 71.130833,21.2318969 C70.5659898,25.3086363 68.9214115,29.8898079 66.3469513,34.6120826 C63.4119935,30.2411989 59.8847999,26.0216305 55.8276265,22.0375215 C51.7705995,18.0538439 47.4720201,14.5895575 43.0183139,11.7052173 C49.2544401,8.42173261 55.1436917,6.7187162 59.9951025,6.79940811 Z M6.49349899,26.918447 C4.92743619,26.918447 3.65316996,25.6673629 3.65316996,24.12947 C3.65316996,22.591721 4.92743619,21.3404929 6.49349899,21.3404929 C8.05956179,21.3404929 9.33382802,22.591721 9.33382802,24.12947 C9.3339745,25.667219 8.05970827,26.918447 6.49349899,26.918447 Z M10.1038956,29.4263689 C11.8413449,28.2808602 12.9871445,26.3341858 12.9871445,24.12947 C12.9871445,20.9790335 10.6472055,18.3563306 7.58465994,17.8451381 C7.65863448,14.4274545 8.68944393,11.6576076 10.6083872,9.77321422 C15.2791831,5.18556992 25.0244852,5.99220134 35.9044542,11.7070872 C31.4516269,14.5909959 27.1543658,18.0547069 23.0982178,22.0375215 C19.0414838,26.0209114 15.5138508,30.2409112 12.5768422,34.6133771 C11.6227904,32.8634702 10.7970589,31.1296729 10.1038956,29.4263689 Z M10.6079478,66.4389279 C5.93583356,61.8527219 6.75731707,52.283467 12.5774281,41.600491 C15.5142902,45.9726692 19.0417767,50.1922376 23.0980713,54.175196 C27.1543658,58.1580106 31.4516269,61.6217216 35.9043077,64.5056303 C25.0243388,70.2200846 15.2791831,71.026716 10.6079478,66.4389279 Z M25.681467,51.638507 C21.3295673,47.3654317 17.6172177,42.8173423 14.6334806,38.106143 C17.6169247,33.3950875 21.3294208,28.8471419 25.681467,24.5737789 C30.0333667,20.3005598 34.6650512,16.6551841 39.4629954,13.7255356 C44.260793,16.6553279 48.8926241,20.3005598 53.2445237,24.5737789 C57.5977418,28.8484364 61.3096519,33.3962382 64.2907523,38.106143 C61.3097984,42.8157601 57.5978883,47.3638495 53.2445237,51.638507 C48.8926241,55.9117262 44.260793,59.5571018 39.4629954,62.4867504 C34.6651977,59.5571018 30.0332202,55.9117262 25.681467,51.638507 Z M68.3190683,66.4390717 C63.6468077,71.0264284 53.901066,70.2200846 43.0212435,64.5054865 C47.4739244,61.6217216 51.7711855,58.1580106 55.82748,54.1750522 C59.8849464,50.1909431 63.411847,45.9713747 66.3466583,41.6007787 C72.1680877,52.2831793 72.9905966,61.8522904 68.3190683,66.4390717 Z" id="Shape"></path>
                    </g>
                    <rect id="Rectangle" fill="#1E337F" x="8" y="36" width="73" height="4"></rect>
                    <circle id="Oval" fill="#1E337F" cx="5.5" cy="37.5" r="5.5"></circle>
                </g>
                <text id="A-bonded-atom-market" font-family="Avenir-Light, Avenir" font-size="24" font-weight="300" letter-spacing="-0.666666667" fill="#322B22">
                    <tspan x="27" y="113">A bonded atom marketplace</tspan>
                </text>
            </g>
        </g>
    </g>
</svg>